<svg xmlns="http://www.w3.org/2000/svg" width="1920" height="912" style="cursor: move;"><g transform="translate(-762.6445367971914,-680.3378280857562) scale(1.979343458565303)"><path class="link" marker-end="" d="M720,386, 770,446" style="stroke-width: 0.37; stroke-opacity: 1; stroke: rgb(80, 80, 80);"></path><path class="link" marker-end="" d="M720,386, 820,446" style="stroke-width: 0.37; stroke-opacity: 1; stroke: rgb(80, 80, 80);"></path><path class="link" marker-end="" d="M720,386, 870,446" style="stroke-width: 0.37; stroke-opacity: 1; stroke: rgb(80, 80, 80);"></path><path class="link" marker-end="" d="M720,386, 920,446" style="stroke-width: 0.37; stroke-opacity: 1; stroke: rgb(80, 80, 80);"></path><path class="link" marker-end="" d="M720,386, 970,446" style="stroke-width: 0.37; stroke-opacity: 1; stroke: rgb(80, 80, 80);"></path><path class="link" marker-end="" d="M720,386, 1020,446" style="stroke-width: 0.37; stroke-opacity: 1; stroke: rgb(80, 80, 80);"></path><path class="link" marker-end="" d="M720,386, 1070,446" style="stroke-width: 0.37; stroke-opacity: 1; stroke: rgb(80, 80, 80);"></path><path class="link" marker-end="" d="M720,386, 1120,446" style="stroke-width: 0.37; stroke-opacity: 1; stroke: rgb(80, 80, 80);"></path><path class="link" marker-end="" d="M770,386, 770,446" style="stroke-width: 0.37; stroke-opacity: 1; stroke: rgb(80, 80, 80);"></path><path class="link" marker-end="" d="M770,386, 820,446" style="stroke-width: 0.37; stroke-opacity: 1; stroke: rgb(80, 80, 80);"></path><path class="link" marker-end="" d="M770,386, 870,446" style="stroke-width: 0.37; stroke-opacity: 1; stroke: rgb(80, 80, 80);"></path><path class="link" marker-end="" d="M770,386, 920,446" style="stroke-width: 0.37; stroke-opacity: 1; stroke: rgb(80, 80, 80);"></path><path class="link" marker-end="" d="M770,386, 970,446" style="stroke-width: 0.37; stroke-opacity: 1; stroke: rgb(80, 80, 80);"></path><path class="link" marker-end="" d="M770,386, 1020,446" style="stroke-width: 0.37; stroke-opacity: 1; stroke: rgb(80, 80, 80);"></path><path class="link" marker-end="" d="M770,386, 1070,446" style="stroke-width: 0.37; stroke-opacity: 1; stroke: rgb(80, 80, 80);"></path><path class="link" marker-end="" d="M770,386, 1120,446" style="stroke-width: 0.37; stroke-opacity: 1; stroke: rgb(80, 80, 80);"></path><path class="link" marker-end="" d="M820,386, 770,446" style="stroke-width: 0.37; stroke-opacity: 1; stroke: rgb(80, 80, 80);"></path><path class="link" marker-end="" d="M820,386, 820,446" style="stroke-width: 0.37; stroke-opacity: 1; stroke: rgb(80, 80, 80);"></path><path class="link" marker-end="" d="M820,386, 870,446" style="stroke-width: 0.37; stroke-opacity: 1; stroke: rgb(80, 80, 80);"></path><path class="link" marker-end="" d="M820,386, 920,446" style="stroke-width: 0.37; stroke-opacity: 1; stroke: rgb(80, 80, 80);"></path><path class="link" marker-end="" d="M820,386, 970,446" style="stroke-width: 0.37; stroke-opacity: 1; stroke: rgb(80, 80, 80);"></path><path class="link" marker-end="" d="M820,386, 1020,446" style="stroke-width: 0.37; stroke-opacity: 1; stroke: rgb(80, 80, 80);"></path><path class="link" marker-end="" d="M820,386, 1070,446" style="stroke-width: 0.37; stroke-opacity: 1; stroke: rgb(80, 80, 80);"></path><path class="link" marker-end="" d="M820,386, 1120,446" style="stroke-width: 0.37; stroke-opacity: 1; stroke: rgb(80, 80, 80);"></path><path class="link" marker-end="" d="M870,386, 770,446" style="stroke-width: 0.37; stroke-opacity: 1; stroke: rgb(80, 80, 80);"></path><path class="link" marker-end="" d="M870,386, 820,446" style="stroke-width: 0.37; stroke-opacity: 1; stroke: rgb(80, 80, 80);"></path><path class="link" marker-end="" d="M870,386, 870,446" style="stroke-width: 0.37; stroke-opacity: 1; stroke: rgb(80, 80, 80);"></path><path class="link" marker-end="" d="M870,386, 920,446" style="stroke-width: 0.37; stroke-opacity: 1; stroke: rgb(80, 80, 80);"></path><path class="link" marker-end="" d="M870,386, 970,446" style="stroke-width: 0.37; stroke-opacity: 1; stroke: rgb(80, 80, 80);"></path><path class="link" marker-end="" d="M870,386, 1020,446" style="stroke-width: 0.37; stroke-opacity: 1; stroke: rgb(80, 80, 80);"></path><path class="link" marker-end="" d="M870,386, 1070,446" style="stroke-width: 0.37; stroke-opacity: 1; stroke: rgb(80, 80, 80);"></path><path class="link" marker-end="" d="M870,386, 1120,446" style="stroke-width: 0.37; stroke-opacity: 1; stroke: rgb(80, 80, 80);"></path><path class="link" marker-end="" d="M920,386, 770,446" style="stroke-width: 0.37; stroke-opacity: 1; stroke: rgb(80, 80, 80);"></path><path class="link" marker-end="" d="M920,386, 820,446" style="stroke-width: 0.37; stroke-opacity: 1; stroke: rgb(80, 80, 80);"></path><path class="link" marker-end="" d="M920,386, 870,446" style="stroke-width: 0.37; stroke-opacity: 1; stroke: rgb(80, 80, 80);"></path><path class="link" marker-end="" d="M920,386, 920,446" style="stroke-width: 0.37; stroke-opacity: 1; stroke: rgb(80, 80, 80);"></path><path class="link" marker-end="" d="M920,386, 970,446" style="stroke-width: 0.37; stroke-opacity: 1; stroke: rgb(80, 80, 80);"></path><path class="link" marker-end="" d="M920,386, 1020,446" style="stroke-width: 0.37; stroke-opacity: 1; stroke: rgb(80, 80, 80);"></path><path class="link" marker-end="" d="M920,386, 1070,446" style="stroke-width: 0.37; stroke-opacity: 1; stroke: rgb(80, 80, 80);"></path><path class="link" marker-end="" d="M920,386, 1120,446" style="stroke-width: 0.37; stroke-opacity: 1; stroke: rgb(80, 80, 80);"></path><path class="link" marker-end="" d="M970,386, 770,446" style="stroke-width: 0.37; stroke-opacity: 1; stroke: rgb(80, 80, 80);"></path><path class="link" marker-end="" d="M970,386, 820,446" style="stroke-width: 0.37; stroke-opacity: 1; stroke: rgb(80, 80, 80);"></path><path class="link" marker-end="" d="M970,386, 870,446" style="stroke-width: 0.37; stroke-opacity: 1; stroke: rgb(80, 80, 80);"></path><path class="link" marker-end="" d="M970,386, 920,446" style="stroke-width: 0.37; stroke-opacity: 1; stroke: rgb(80, 80, 80);"></path><path class="link" marker-end="" d="M970,386, 970,446" style="stroke-width: 0.37; stroke-opacity: 1; stroke: rgb(80, 80, 80);"></path><path class="link" marker-end="" d="M970,386, 1020,446" style="stroke-width: 0.37; stroke-opacity: 1; stroke: rgb(80, 80, 80);"></path><path class="link" marker-end="" d="M970,386, 1070,446" style="stroke-width: 0.37; stroke-opacity: 1; stroke: rgb(80, 80, 80);"></path><path class="link" marker-end="" d="M970,386, 1120,446" style="stroke-width: 0.37; stroke-opacity: 1; stroke: rgb(80, 80, 80);"></path><path class="link" marker-end="" d="M1020,386, 770,446" style="stroke-width: 0.37; stroke-opacity: 1; stroke: rgb(80, 80, 80);"></path><path class="link" marker-end="" d="M1020,386, 820,446" style="stroke-width: 0.37; stroke-opacity: 1; stroke: rgb(80, 80, 80);"></path><path class="link" marker-end="" d="M1020,386, 870,446" style="stroke-width: 0.37; stroke-opacity: 1; stroke: rgb(80, 80, 80);"></path><path class="link" marker-end="" d="M1020,386, 920,446" style="stroke-width: 0.37; stroke-opacity: 1; stroke: rgb(80, 80, 80);"></path><path class="link" marker-end="" d="M1020,386, 970,446" style="stroke-width: 0.37; stroke-opacity: 1; stroke: rgb(80, 80, 80);"></path><path class="link" marker-end="" d="M1020,386, 1020,446" style="stroke-width: 0.37; stroke-opacity: 1; stroke: rgb(80, 80, 80);"></path><path class="link" marker-end="" d="M1020,386, 1070,446" style="stroke-width: 0.37; stroke-opacity: 1; stroke: rgb(80, 80, 80);"></path><path class="link" marker-end="" d="M1020,386, 1120,446" style="stroke-width: 0.37; stroke-opacity: 1; stroke: rgb(80, 80, 80);"></path><path class="link" marker-end="" d="M1070,386, 770,446" style="stroke-width: 0.37; stroke-opacity: 1; stroke: rgb(80, 80, 80);"></path><path class="link" marker-end="" d="M1070,386, 820,446" style="stroke-width: 0.37; stroke-opacity: 1; stroke: rgb(80, 80, 80);"></path><path class="link" marker-end="" d="M1070,386, 870,446" style="stroke-width: 0.37; stroke-opacity: 1; stroke: rgb(80, 80, 80);"></path><path class="link" marker-end="" d="M1070,386, 920,446" style="stroke-width: 0.37; stroke-opacity: 1; stroke: rgb(80, 80, 80);"></path><path class="link" marker-end="" d="M1070,386, 970,446" style="stroke-width: 0.37; stroke-opacity: 1; stroke: rgb(80, 80, 80);"></path><path class="link" marker-end="" d="M1070,386, 1020,446" style="stroke-width: 0.37; stroke-opacity: 1; stroke: rgb(80, 80, 80);"></path><path class="link" marker-end="" d="M1070,386, 1070,446" style="stroke-width: 0.37; stroke-opacity: 1; stroke: rgb(80, 80, 80);"></path><path class="link" marker-end="" d="M1070,386, 1120,446" style="stroke-width: 0.37; stroke-opacity: 1; stroke: rgb(80, 80, 80);"></path><path class="link" marker-end="" d="M1120,386, 770,446" style="stroke-width: 0.37; stroke-opacity: 1; stroke: rgb(80, 80, 80);"></path><path class="link" marker-end="" d="M1120,386, 820,446" style="stroke-width: 0.37; stroke-opacity: 1; stroke: rgb(80, 80, 80);"></path><path class="link" marker-end="" d="M1120,386, 870,446" style="stroke-width: 0.37; stroke-opacity: 1; stroke: rgb(80, 80, 80);"></path><path class="link" marker-end="" d="M1120,386, 920,446" style="stroke-width: 0.37; stroke-opacity: 1; stroke: rgb(80, 80, 80);"></path><path class="link" marker-end="" d="M1120,386, 970,446" style="stroke-width: 0.37; stroke-opacity: 1; stroke: rgb(80, 80, 80);"></path><path class="link" marker-end="" d="M1120,386, 1020,446" style="stroke-width: 0.37; stroke-opacity: 1; stroke: rgb(80, 80, 80);"></path><path class="link" marker-end="" d="M1120,386, 1070,446" style="stroke-width: 0.37; stroke-opacity: 1; stroke: rgb(80, 80, 80);"></path><path class="link" marker-end="" d="M1120,386, 1120,446" style="stroke-width: 0.37; stroke-opacity: 1; stroke: rgb(80, 80, 80);"></path><path class="link" marker-end="" d="M1170,386, 770,446" style="stroke-width: 0.37; stroke-opacity: 1; stroke: rgb(80, 80, 80);"></path><path class="link" marker-end="" d="M1170,386, 820,446" style="stroke-width: 0.37; stroke-opacity: 1; stroke: rgb(80, 80, 80);"></path><path class="link" marker-end="" d="M1170,386, 870,446" style="stroke-width: 0.37; stroke-opacity: 1; stroke: rgb(80, 80, 80);"></path><path class="link" marker-end="" d="M1170,386, 920,446" style="stroke-width: 0.37; stroke-opacity: 1; stroke: rgb(80, 80, 80);"></path><path class="link" marker-end="" d="M1170,386, 970,446" style="stroke-width: 0.37; stroke-opacity: 1; stroke: rgb(80, 80, 80);"></path><path class="link" marker-end="" d="M1170,386, 1020,446" style="stroke-width: 0.37; stroke-opacity: 1; stroke: rgb(80, 80, 80);"></path><path class="link" marker-end="" d="M1170,386, 1070,446" style="stroke-width: 0.37; stroke-opacity: 1; stroke: rgb(80, 80, 80);"></path><path class="link" marker-end="" d="M1170,386, 1120,446" style="stroke-width: 0.37; stroke-opacity: 1; stroke: rgb(80, 80, 80);"></path><path class="link" marker-end="" d="M770,446, 820,506" style="stroke-width: 0.37; stroke-opacity: 1; stroke: rgb(80, 80, 80);"></path><path class="link" marker-end="" d="M770,446, 870,506" style="stroke-width: 0.37; stroke-opacity: 1; stroke: rgb(80, 80, 80);"></path><path class="link" marker-end="" d="M770,446, 920,506" style="stroke-width: 0.37; stroke-opacity: 1; stroke: rgb(80, 80, 80);"></path><path class="link" marker-end="" d="M770,446, 970,506" style="stroke-width: 0.37; stroke-opacity: 1; stroke: rgb(80, 80, 80);"></path><path class="link" marker-end="" d="M770,446, 1020,506" style="stroke-width: 0.37; stroke-opacity: 1; stroke: rgb(80, 80, 80);"></path><path class="link" marker-end="" d="M770,446, 1070,506" style="stroke-width: 0.37; stroke-opacity: 1; stroke: rgb(80, 80, 80);"></path><path class="link" marker-end="" d="M820,446, 820,506" style="stroke-width: 0.37; stroke-opacity: 1; stroke: rgb(80, 80, 80);"></path><path class="link" marker-end="" d="M820,446, 870,506" style="stroke-width: 0.37; stroke-opacity: 1; stroke: rgb(80, 80, 80);"></path><path class="link" marker-end="" d="M820,446, 920,506" style="stroke-width: 0.37; stroke-opacity: 1; stroke: rgb(80, 80, 80);"></path><path class="link" marker-end="" d="M820,446, 970,506" style="stroke-width: 0.37; stroke-opacity: 1; stroke: rgb(80, 80, 80);"></path><path class="link" marker-end="" d="M820,446, 1020,506" style="stroke-width: 0.37; stroke-opacity: 1; stroke: rgb(80, 80, 80);"></path><path class="link" marker-end="" d="M820,446, 1070,506" style="stroke-width: 0.37; stroke-opacity: 1; stroke: rgb(80, 80, 80);"></path><path class="link" marker-end="" d="M870,446, 820,506" style="stroke-width: 0.37; stroke-opacity: 1; stroke: rgb(80, 80, 80);"></path><path class="link" marker-end="" d="M870,446, 870,506" style="stroke-width: 0.37; stroke-opacity: 1; stroke: rgb(80, 80, 80);"></path><path class="link" marker-end="" d="M870,446, 920,506" style="stroke-width: 0.37; stroke-opacity: 1; stroke: rgb(80, 80, 80);"></path><path class="link" marker-end="" d="M870,446, 970,506" style="stroke-width: 0.37; stroke-opacity: 1; stroke: rgb(80, 80, 80);"></path><path class="link" marker-end="" d="M870,446, 1020,506" style="stroke-width: 0.37; stroke-opacity: 1; stroke: rgb(80, 80, 80);"></path><path class="link" marker-end="" d="M870,446, 1070,506" style="stroke-width: 0.37; stroke-opacity: 1; stroke: rgb(80, 80, 80);"></path><path class="link" marker-end="" d="M920,446, 820,506" style="stroke-width: 0.37; stroke-opacity: 1; stroke: rgb(80, 80, 80);"></path><path class="link" marker-end="" d="M920,446, 870,506" style="stroke-width: 0.37; stroke-opacity: 1; stroke: rgb(80, 80, 80);"></path><path class="link" marker-end="" d="M920,446, 920,506" style="stroke-width: 0.37; stroke-opacity: 1; stroke: rgb(80, 80, 80);"></path><path class="link" marker-end="" d="M920,446, 970,506" style="stroke-width: 0.37; stroke-opacity: 1; stroke: rgb(80, 80, 80);"></path><path class="link" marker-end="" d="M920,446, 1020,506" style="stroke-width: 0.37; stroke-opacity: 1; stroke: rgb(80, 80, 80);"></path><path class="link" marker-end="" d="M920,446, 1070,506" style="stroke-width: 0.37; stroke-opacity: 1; stroke: rgb(80, 80, 80);"></path><path class="link" marker-end="" d="M970,446, 820,506" style="stroke-width: 0.37; stroke-opacity: 1; stroke: rgb(80, 80, 80);"></path><path class="link" marker-end="" d="M970,446, 870,506" style="stroke-width: 0.37; stroke-opacity: 1; stroke: rgb(80, 80, 80);"></path><path class="link" marker-end="" d="M970,446, 920,506" style="stroke-width: 0.37; stroke-opacity: 1; stroke: rgb(80, 80, 80);"></path><path class="link" marker-end="" d="M970,446, 970,506" style="stroke-width: 0.37; stroke-opacity: 1; stroke: rgb(80, 80, 80);"></path><path class="link" marker-end="" d="M970,446, 1020,506" style="stroke-width: 0.37; stroke-opacity: 1; stroke: rgb(80, 80, 80);"></path><path class="link" marker-end="" d="M970,446, 1070,506" style="stroke-width: 0.37; stroke-opacity: 1; stroke: rgb(80, 80, 80);"></path><path class="link" marker-end="" d="M1020,446, 820,506" style="stroke-width: 0.37; stroke-opacity: 1; stroke: rgb(80, 80, 80);"></path><path class="link" marker-end="" d="M1020,446, 870,506" style="stroke-width: 0.37; stroke-opacity: 1; stroke: rgb(80, 80, 80);"></path><path class="link" marker-end="" d="M1020,446, 920,506" style="stroke-width: 0.37; stroke-opacity: 1; stroke: rgb(80, 80, 80);"></path><path class="link" marker-end="" d="M1020,446, 970,506" style="stroke-width: 0.37; stroke-opacity: 1; stroke: rgb(80, 80, 80);"></path><path class="link" marker-end="" d="M1020,446, 1020,506" style="stroke-width: 0.37; stroke-opacity: 1; stroke: rgb(80, 80, 80);"></path><path class="link" marker-end="" d="M1020,446, 1070,506" style="stroke-width: 0.37; stroke-opacity: 1; stroke: rgb(80, 80, 80);"></path><path class="link" marker-end="" d="M1070,446, 820,506" style="stroke-width: 0.37; stroke-opacity: 1; stroke: rgb(80, 80, 80);"></path><path class="link" marker-end="" d="M1070,446, 870,506" style="stroke-width: 0.37; stroke-opacity: 1; stroke: rgb(80, 80, 80);"></path><path class="link" marker-end="" d="M1070,446, 920,506" style="stroke-width: 0.37; stroke-opacity: 1; stroke: rgb(80, 80, 80);"></path><path class="link" marker-end="" d="M1070,446, 970,506" style="stroke-width: 0.37; stroke-opacity: 1; stroke: rgb(80, 80, 80);"></path><path class="link" marker-end="" d="M1070,446, 1020,506" style="stroke-width: 0.37; stroke-opacity: 1; stroke: rgb(80, 80, 80);"></path><path class="link" marker-end="" d="M1070,446, 1070,506" style="stroke-width: 0.37; stroke-opacity: 1; stroke: rgb(80, 80, 80);"></path><path class="link" marker-end="" d="M1120,446, 820,506" style="stroke-width: 0.37; stroke-opacity: 1; stroke: rgb(80, 80, 80);"></path><path class="link" marker-end="" d="M1120,446, 870,506" style="stroke-width: 0.37; stroke-opacity: 1; stroke: rgb(80, 80, 80);"></path><path class="link" marker-end="" d="M1120,446, 920,506" style="stroke-width: 0.37; stroke-opacity: 1; stroke: rgb(80, 80, 80);"></path><path class="link" marker-end="" d="M1120,446, 970,506" style="stroke-width: 0.37; stroke-opacity: 1; stroke: rgb(80, 80, 80);"></path><path class="link" marker-end="" d="M1120,446, 1020,506" style="stroke-width: 0.37; stroke-opacity: 1; stroke: rgb(80, 80, 80);"></path><path class="link" marker-end="" d="M1120,446, 1070,506" style="stroke-width: 0.37; stroke-opacity: 1; stroke: rgb(80, 80, 80);"></path><path class="link" marker-end="" d="M820,506, 870,566" style="stroke-width: 0.37; stroke-opacity: 1; stroke: rgb(80, 80, 80);"></path><path class="link" marker-end="" d="M870,506, 870,566" style="stroke-width: 0.37; stroke-opacity: 1; stroke: rgb(80, 80, 80);"></path><path class="link" marker-end="" d="M920,506, 870,566" style="stroke-width: 0.37; stroke-opacity: 1; stroke: rgb(80, 80, 80);"></path><path class="link" marker-end="" d="M970,506, 870,566" style="stroke-width: 0.37; stroke-opacity: 1; stroke: rgb(80, 80, 80);"></path><path class="link" marker-end="" d="M1020,506, 870,566" style="stroke-width: 0.37; stroke-opacity: 1; stroke: rgb(80, 80, 80);"></path><path class="link" marker-end="" d="M1070,506, 870,566" style="stroke-width: 0.37; stroke-opacity: 1; stroke: rgb(80, 80, 80);"></path><path class="link" marker-end="" d="M820,506, 920,566" style="stroke-width: 0.37; stroke-opacity: 1; stroke: rgb(80, 80, 80);"></path><path class="link" marker-end="" d="M820,506, 970,566" style="stroke-width: 0.37; stroke-opacity: 1; stroke: rgb(80, 80, 80);"></path><path class="link" marker-end="" d="M820,506, 1020,566" style="stroke-width: 0.37; stroke-opacity: 1; stroke: rgb(80, 80, 80);"></path><path class="link" marker-end="" d="M870,506, 920,566" style="stroke-width: 0.37; stroke-opacity: 1; stroke: rgb(80, 80, 80);"></path><path class="link" marker-end="" d="M870,506, 970,566" style="stroke-width: 0.37; stroke-opacity: 1; stroke: rgb(80, 80, 80);"></path><path class="link" marker-end="" d="M870,506, 1020,566" style="stroke-width: 0.37; stroke-opacity: 1; stroke: rgb(80, 80, 80);"></path><path class="link" marker-end="" d="M920,506, 920,566" style="stroke-width: 0.37; stroke-opacity: 1; stroke: rgb(80, 80, 80);"></path><path class="link" marker-end="" d="M920,506, 970,566" style="stroke-width: 0.37; stroke-opacity: 1; stroke: rgb(80, 80, 80);"></path><path class="link" marker-end="" d="M920,506, 1020,566" style="stroke-width: 0.37; stroke-opacity: 1; stroke: rgb(80, 80, 80);"></path><path class="link" marker-end="" d="M970,506, 920,566" style="stroke-width: 0.37; stroke-opacity: 1; stroke: rgb(80, 80, 80);"></path><path class="link" marker-end="" d="M970,506, 970,566" style="stroke-width: 0.37; stroke-opacity: 1; stroke: rgb(80, 80, 80);"></path><path class="link" marker-end="" d="M970,506, 1020,566" style="stroke-width: 0.37; stroke-opacity: 1; stroke: rgb(80, 80, 80);"></path><path class="link" marker-end="" d="M1020,506, 920,566" style="stroke-width: 0.37; stroke-opacity: 1; stroke: rgb(80, 80, 80);"></path><path class="link" marker-end="" d="M1020,506, 970,566" style="stroke-width: 0.37; stroke-opacity: 1; stroke: rgb(80, 80, 80);"></path><path class="link" marker-end="" d="M1020,506, 1020,566" style="stroke-width: 0.37; stroke-opacity: 1; stroke: rgb(80, 80, 80);"></path><path class="link" marker-end="" d="M1070,506, 920,566" style="stroke-width: 0.37; stroke-opacity: 1; stroke: rgb(80, 80, 80);"></path><path class="link" marker-end="" d="M1070,506, 970,566" style="stroke-width: 0.37; stroke-opacity: 1; stroke: rgb(80, 80, 80);"></path><path class="link" marker-end="" d="M1070,506, 1020,566" style="stroke-width: 0.37; stroke-opacity: 1; stroke: rgb(80, 80, 80);"></path><path class="link" marker-end="" d="M870,566, 820,626" style="stroke-width: 0.37; stroke-opacity: 1; stroke: rgb(80, 80, 80);"></path><path class="link" marker-end="" d="M870,566, 870,626" style="stroke-width: 0.37; stroke-opacity: 1; stroke: rgb(80, 80, 80);"></path><path class="link" marker-end="" d="M870,566, 920,626" style="stroke-width: 0.37; stroke-opacity: 1; stroke: rgb(80, 80, 80);"></path><path class="link" marker-end="" d="M870,566, 970,626" style="stroke-width: 0.37; stroke-opacity: 1; stroke: rgb(80, 80, 80);"></path><path class="link" marker-end="" d="M870,566, 1020,626" style="stroke-width: 0.37; stroke-opacity: 1; stroke: rgb(80, 80, 80);"></path><path class="link" marker-end="" d="M870,566, 1070,626" style="stroke-width: 0.37; stroke-opacity: 1; stroke: rgb(80, 80, 80);"></path><path class="link" marker-end="" d="M920,566, 820,626" style="stroke-width: 0.37; stroke-opacity: 1; stroke: rgb(80, 80, 80);"></path><path class="link" marker-end="" d="M920,566, 870,626" style="stroke-width: 0.37; stroke-opacity: 1; stroke: rgb(80, 80, 80);"></path><path class="link" marker-end="" d="M920,566, 920,626" style="stroke-width: 0.37; stroke-opacity: 1; stroke: rgb(80, 80, 80);"></path><path class="link" marker-end="" d="M920,566, 970,626" style="stroke-width: 0.37; stroke-opacity: 1; stroke: rgb(80, 80, 80);"></path><path class="link" marker-end="" d="M920,566, 1020,626" style="stroke-width: 0.37; stroke-opacity: 1; stroke: rgb(80, 80, 80);"></path><path class="link" marker-end="" d="M920,566, 1070,626" style="stroke-width: 0.37; stroke-opacity: 1; stroke: rgb(80, 80, 80);"></path><path class="link" marker-end="" d="M970,566, 820,626" style="stroke-width: 0.37; stroke-opacity: 1; stroke: rgb(80, 80, 80);"></path><path class="link" marker-end="" d="M970,566, 870,626" style="stroke-width: 0.37; stroke-opacity: 1; stroke: rgb(80, 80, 80);"></path><path class="link" marker-end="" d="M970,566, 920,626" style="stroke-width: 0.37; stroke-opacity: 1; stroke: rgb(80, 80, 80);"></path><path class="link" marker-end="" d="M970,566, 970,626" style="stroke-width: 0.37; stroke-opacity: 1; stroke: rgb(80, 80, 80);"></path><path class="link" marker-end="" d="M970,566, 1020,626" style="stroke-width: 0.37; stroke-opacity: 1; stroke: rgb(80, 80, 80);"></path><path class="link" marker-end="" d="M970,566, 1070,626" style="stroke-width: 0.37; stroke-opacity: 1; stroke: rgb(80, 80, 80);"></path><path class="link" marker-end="" d="M1020,566, 820,626" style="stroke-width: 0.37; stroke-opacity: 1; stroke: rgb(80, 80, 80);"></path><path class="link" marker-end="" d="M1020,566, 870,626" style="stroke-width: 0.37; stroke-opacity: 1; stroke: rgb(80, 80, 80);"></path><path class="link" marker-end="" d="M1020,566, 920,626" style="stroke-width: 0.37; stroke-opacity: 1; stroke: rgb(80, 80, 80);"></path><path class="link" marker-end="" d="M1020,566, 970,626" style="stroke-width: 0.37; stroke-opacity: 1; stroke: rgb(80, 80, 80);"></path><path class="link" marker-end="" d="M1020,566, 1020,626" style="stroke-width: 0.37; stroke-opacity: 1; stroke: rgb(80, 80, 80);"></path><path class="link" marker-end="" d="M1020,566, 1070,626" style="stroke-width: 0.37; stroke-opacity: 1; stroke: rgb(80, 80, 80);"></path><path class="link" marker-end="" d="M820,626, 770,686" style="stroke-width: 0.37; stroke-opacity: 1; stroke: rgb(80, 80, 80);"></path><path class="link" marker-end="" d="M820,626, 820,686" style="stroke-width: 0.37; stroke-opacity: 1; stroke: rgb(80, 80, 80);"></path><path class="link" marker-end="" d="M820,626, 870,686" style="stroke-width: 0.37; stroke-opacity: 1; stroke: rgb(80, 80, 80);"></path><path class="link" marker-end="" d="M820,626, 920,686" style="stroke-width: 0.37; stroke-opacity: 1; stroke: rgb(80, 80, 80);"></path><path class="link" marker-end="" d="M820,626, 970,686" style="stroke-width: 0.37; stroke-opacity: 1; stroke: rgb(80, 80, 80);"></path><path class="link" marker-end="" d="M820,626, 1020,686" style="stroke-width: 0.37; stroke-opacity: 1; stroke: rgb(80, 80, 80);"></path><path class="link" marker-end="" d="M820,626, 1070,686" style="stroke-width: 0.37; stroke-opacity: 1; stroke: rgb(80, 80, 80);"></path><path class="link" marker-end="" d="M820,626, 1120,686" style="stroke-width: 0.37; stroke-opacity: 1; stroke: rgb(80, 80, 80);"></path><path class="link" marker-end="" d="M870,626, 770,686" style="stroke-width: 0.37; stroke-opacity: 1; stroke: rgb(80, 80, 80);"></path><path class="link" marker-end="" d="M870,626, 820,686" style="stroke-width: 0.37; stroke-opacity: 1; stroke: rgb(80, 80, 80);"></path><path class="link" marker-end="" d="M870,626, 870,686" style="stroke-width: 0.37; stroke-opacity: 1; stroke: rgb(80, 80, 80);"></path><path class="link" marker-end="" d="M870,626, 920,686" style="stroke-width: 0.37; stroke-opacity: 1; stroke: rgb(80, 80, 80);"></path><path class="link" marker-end="" d="M870,626, 970,686" style="stroke-width: 0.37; stroke-opacity: 1; stroke: rgb(80, 80, 80);"></path><path class="link" marker-end="" d="M870,626, 1020,686" style="stroke-width: 0.37; stroke-opacity: 1; stroke: rgb(80, 80, 80);"></path><path class="link" marker-end="" d="M870,626, 1070,686" style="stroke-width: 0.37; stroke-opacity: 1; stroke: rgb(80, 80, 80);"></path><path class="link" marker-end="" d="M870,626, 1120,686" style="stroke-width: 0.37; stroke-opacity: 1; stroke: rgb(80, 80, 80);"></path><path class="link" marker-end="" d="M920,626, 770,686" style="stroke-width: 0.37; stroke-opacity: 1; stroke: rgb(80, 80, 80);"></path><path class="link" marker-end="" d="M920,626, 820,686" style="stroke-width: 0.37; stroke-opacity: 1; stroke: rgb(80, 80, 80);"></path><path class="link" marker-end="" d="M920,626, 870,686" style="stroke-width: 0.37; stroke-opacity: 1; stroke: rgb(80, 80, 80);"></path><path class="link" marker-end="" d="M920,626, 920,686" style="stroke-width: 0.37; stroke-opacity: 1; stroke: rgb(80, 80, 80);"></path><path class="link" marker-end="" d="M920,626, 970,686" style="stroke-width: 0.37; stroke-opacity: 1; stroke: rgb(80, 80, 80);"></path><path class="link" marker-end="" d="M920,626, 1020,686" style="stroke-width: 0.37; stroke-opacity: 1; stroke: rgb(80, 80, 80);"></path><path class="link" marker-end="" d="M920,626, 1070,686" style="stroke-width: 0.37; stroke-opacity: 1; stroke: rgb(80, 80, 80);"></path><path class="link" marker-end="" d="M920,626, 1120,686" style="stroke-width: 0.37; stroke-opacity: 1; stroke: rgb(80, 80, 80);"></path><path class="link" marker-end="" d="M970,626, 770,686" style="stroke-width: 0.37; stroke-opacity: 1; stroke: rgb(80, 80, 80);"></path><path class="link" marker-end="" d="M970,626, 820,686" style="stroke-width: 0.37; stroke-opacity: 1; stroke: rgb(80, 80, 80);"></path><path class="link" marker-end="" d="M970,626, 870,686" style="stroke-width: 0.37; stroke-opacity: 1; stroke: rgb(80, 80, 80);"></path><path class="link" marker-end="" d="M970,626, 920,686" style="stroke-width: 0.37; stroke-opacity: 1; stroke: rgb(80, 80, 80);"></path><path class="link" marker-end="" d="M970,626, 970,686" style="stroke-width: 0.37; stroke-opacity: 1; stroke: rgb(80, 80, 80);"></path><path class="link" marker-end="" d="M970,626, 1020,686" style="stroke-width: 0.37; stroke-opacity: 1; stroke: rgb(80, 80, 80);"></path><path class="link" marker-end="" d="M970,626, 1070,686" style="stroke-width: 0.37; stroke-opacity: 1; stroke: rgb(80, 80, 80);"></path><path class="link" marker-end="" d="M970,626, 1120,686" style="stroke-width: 0.37; stroke-opacity: 1; stroke: rgb(80, 80, 80);"></path><path class="link" marker-end="" d="M1020,626, 770,686" style="stroke-width: 0.37; stroke-opacity: 1; stroke: rgb(80, 80, 80);"></path><path class="link" marker-end="" d="M1020,626, 820,686" style="stroke-width: 0.37; stroke-opacity: 1; stroke: rgb(80, 80, 80);"></path><path class="link" marker-end="" d="M1020,626, 870,686" style="stroke-width: 0.37; stroke-opacity: 1; stroke: rgb(80, 80, 80);"></path><path class="link" marker-end="" d="M1020,626, 920,686" style="stroke-width: 0.37; stroke-opacity: 1; stroke: rgb(80, 80, 80);"></path><path class="link" marker-end="" d="M1020,626, 970,686" style="stroke-width: 0.37; stroke-opacity: 1; stroke: rgb(80, 80, 80);"></path><path class="link" marker-end="" d="M1020,626, 1020,686" style="stroke-width: 0.37; stroke-opacity: 1; stroke: rgb(80, 80, 80);"></path><path class="link" marker-end="" d="M1020,626, 1070,686" style="stroke-width: 0.37; stroke-opacity: 1; stroke: rgb(80, 80, 80);"></path><path class="link" marker-end="" d="M1020,626, 1120,686" style="stroke-width: 0.37; stroke-opacity: 1; stroke: rgb(80, 80, 80);"></path><path class="link" marker-end="" d="M1070,626, 770,686" style="stroke-width: 0.37; stroke-opacity: 1; stroke: rgb(80, 80, 80);"></path><path class="link" marker-end="" d="M1070,626, 820,686" style="stroke-width: 0.37; stroke-opacity: 1; stroke: rgb(80, 80, 80);"></path><path class="link" marker-end="" d="M1070,626, 870,686" style="stroke-width: 0.37; stroke-opacity: 1; stroke: rgb(80, 80, 80);"></path><path class="link" marker-end="" d="M1070,626, 920,686" style="stroke-width: 0.37; stroke-opacity: 1; stroke: rgb(80, 80, 80);"></path><path class="link" marker-end="" d="M1070,626, 970,686" style="stroke-width: 0.37; stroke-opacity: 1; stroke: rgb(80, 80, 80);"></path><path class="link" marker-end="" d="M1070,626, 1020,686" style="stroke-width: 0.37; stroke-opacity: 1; stroke: rgb(80, 80, 80);"></path><path class="link" marker-end="" d="M1070,626, 1070,686" style="stroke-width: 0.37; stroke-opacity: 1; stroke: rgb(80, 80, 80);"></path><path class="link" marker-end="" d="M1070,626, 1120,686" style="stroke-width: 0.37; stroke-opacity: 1; stroke: rgb(80, 80, 80);"></path><path class="link" marker-end="" d="M770,686, 729,746" style="stroke-width: 0.37; stroke-opacity: 1; stroke: rgb(80, 80, 80);"></path><path class="link" marker-end="" d="M770,686, 777,746" style="stroke-width: 0.37; stroke-opacity: 1; stroke: rgb(80, 80, 80);"></path><path class="link" marker-end="" d="M770,686, 825,746" style="stroke-width: 0.37; stroke-opacity: 1; stroke: rgb(80, 80, 80);"></path><path class="link" marker-end="" d="M770,686, 873,746" style="stroke-width: 0.37; stroke-opacity: 1; stroke: rgb(80, 80, 80);"></path><path class="link" marker-end="" d="M770,686, 921,746" style="stroke-width: 0.37; stroke-opacity: 1; stroke: rgb(80, 80, 80);"></path><path class="link" marker-end="" d="M770,686, 969,746" style="stroke-width: 0.37; stroke-opacity: 1; stroke: rgb(80, 80, 80);"></path><path class="link" marker-end="" d="M770,686, 1017,746" style="stroke-width: 0.37; stroke-opacity: 1; stroke: rgb(80, 80, 80);"></path><path class="link" marker-end="" d="M770,686, 1065,746" style="stroke-width: 0.37; stroke-opacity: 1; stroke: rgb(80, 80, 80);"></path><path class="link" marker-end="" d="M770,686, 1113,746" style="stroke-width: 0.37; stroke-opacity: 1; stroke: rgb(80, 80, 80);"></path><path class="link" marker-end="" d="M770,686, 1161,746" style="stroke-width: 0.37; stroke-opacity: 1; stroke: rgb(80, 80, 80);"></path><path class="link" marker-end="" d="M820,686, 729,746" style="stroke-width: 0.37; stroke-opacity: 1; stroke: rgb(80, 80, 80);"></path><path class="link" marker-end="" d="M820,686, 777,746" style="stroke-width: 0.37; stroke-opacity: 1; stroke: rgb(80, 80, 80);"></path><path class="link" marker-end="" d="M820,686, 825,746" style="stroke-width: 0.37; stroke-opacity: 1; stroke: rgb(80, 80, 80);"></path><path class="link" marker-end="" d="M820,686, 873,746" style="stroke-width: 0.37; stroke-opacity: 1; stroke: rgb(80, 80, 80);"></path><path class="link" marker-end="" d="M820,686, 921,746" style="stroke-width: 0.37; stroke-opacity: 1; stroke: rgb(80, 80, 80);"></path><path class="link" marker-end="" d="M820,686, 969,746" style="stroke-width: 0.37; stroke-opacity: 1; stroke: rgb(80, 80, 80);"></path><path class="link" marker-end="" d="M820,686, 1017,746" style="stroke-width: 0.37; stroke-opacity: 1; stroke: rgb(80, 80, 80);"></path><path class="link" marker-end="" d="M820,686, 1065,746" style="stroke-width: 0.37; stroke-opacity: 1; stroke: rgb(80, 80, 80);"></path><path class="link" marker-end="" d="M820,686, 1113,746" style="stroke-width: 0.37; stroke-opacity: 1; stroke: rgb(80, 80, 80);"></path><path class="link" marker-end="" d="M820,686, 1161,746" style="stroke-width: 0.37; stroke-opacity: 1; stroke: rgb(80, 80, 80);"></path><path class="link" marker-end="" d="M870,686, 729,746" style="stroke-width: 0.37; stroke-opacity: 1; stroke: rgb(80, 80, 80);"></path><path class="link" marker-end="" d="M870,686, 777,746" style="stroke-width: 0.37; stroke-opacity: 1; stroke: rgb(80, 80, 80);"></path><path class="link" marker-end="" d="M870,686, 825,746" style="stroke-width: 0.37; stroke-opacity: 1; stroke: rgb(80, 80, 80);"></path><path class="link" marker-end="" d="M870,686, 873,746" style="stroke-width: 0.37; stroke-opacity: 1; stroke: rgb(80, 80, 80);"></path><path class="link" marker-end="" d="M870,686, 921,746" style="stroke-width: 0.37; stroke-opacity: 1; stroke: rgb(80, 80, 80);"></path><path class="link" marker-end="" d="M870,686, 969,746" style="stroke-width: 0.37; stroke-opacity: 1; stroke: rgb(80, 80, 80);"></path><path class="link" marker-end="" d="M870,686, 1017,746" style="stroke-width: 0.37; stroke-opacity: 1; stroke: rgb(80, 80, 80);"></path><path class="link" marker-end="" d="M870,686, 1065,746" style="stroke-width: 0.37; stroke-opacity: 1; stroke: rgb(80, 80, 80);"></path><path class="link" marker-end="" d="M870,686, 1113,746" style="stroke-width: 0.37; stroke-opacity: 1; stroke: rgb(80, 80, 80);"></path><path class="link" marker-end="" d="M870,686, 1161,746" style="stroke-width: 0.37; stroke-opacity: 1; stroke: rgb(80, 80, 80);"></path><path class="link" marker-end="" d="M920,686, 729,746" style="stroke-width: 0.37; stroke-opacity: 1; stroke: rgb(80, 80, 80);"></path><path class="link" marker-end="" d="M920,686, 777,746" style="stroke-width: 0.37; stroke-opacity: 1; stroke: rgb(80, 80, 80);"></path><path class="link" marker-end="" d="M920,686, 825,746" style="stroke-width: 0.37; stroke-opacity: 1; stroke: rgb(80, 80, 80);"></path><path class="link" marker-end="" d="M920,686, 873,746" style="stroke-width: 0.37; stroke-opacity: 1; stroke: rgb(80, 80, 80);"></path><path class="link" marker-end="" d="M920,686, 921,746" style="stroke-width: 0.37; stroke-opacity: 1; stroke: rgb(80, 80, 80);"></path><path class="link" marker-end="" d="M920,686, 969,746" style="stroke-width: 0.37; stroke-opacity: 1; stroke: rgb(80, 80, 80);"></path><path class="link" marker-end="" d="M920,686, 1017,746" style="stroke-width: 0.37; stroke-opacity: 1; stroke: rgb(80, 80, 80);"></path><path class="link" marker-end="" d="M920,686, 1065,746" style="stroke-width: 0.37; stroke-opacity: 1; stroke: rgb(80, 80, 80);"></path><path class="link" marker-end="" d="M920,686, 1113,746" style="stroke-width: 0.37; stroke-opacity: 1; stroke: rgb(80, 80, 80);"></path><path class="link" marker-end="" d="M920,686, 1161,746" style="stroke-width: 0.37; stroke-opacity: 1; stroke: rgb(80, 80, 80);"></path><path class="link" marker-end="" d="M970,686, 729,746" style="stroke-width: 0.37; stroke-opacity: 1; stroke: rgb(80, 80, 80);"></path><path class="link" marker-end="" d="M970,686, 777,746" style="stroke-width: 0.37; stroke-opacity: 1; stroke: rgb(80, 80, 80);"></path><path class="link" marker-end="" d="M970,686, 825,746" style="stroke-width: 0.37; stroke-opacity: 1; stroke: rgb(80, 80, 80);"></path><path class="link" marker-end="" d="M970,686, 873,746" style="stroke-width: 0.37; stroke-opacity: 1; stroke: rgb(80, 80, 80);"></path><path class="link" marker-end="" d="M970,686, 921,746" style="stroke-width: 0.37; stroke-opacity: 1; stroke: rgb(80, 80, 80);"></path><path class="link" marker-end="" d="M970,686, 969,746" style="stroke-width: 0.37; stroke-opacity: 1; stroke: rgb(80, 80, 80);"></path><path class="link" marker-end="" d="M970,686, 1017,746" style="stroke-width: 0.37; stroke-opacity: 1; stroke: rgb(80, 80, 80);"></path><path class="link" marker-end="" d="M970,686, 1065,746" style="stroke-width: 0.37; stroke-opacity: 1; stroke: rgb(80, 80, 80);"></path><path class="link" marker-end="" d="M970,686, 1113,746" style="stroke-width: 0.37; stroke-opacity: 1; stroke: rgb(80, 80, 80);"></path><path class="link" marker-end="" d="M970,686, 1161,746" style="stroke-width: 0.37; stroke-opacity: 1; stroke: rgb(80, 80, 80);"></path><path class="link" marker-end="" d="M1020,686, 729,746" style="stroke-width: 0.37; stroke-opacity: 1; stroke: rgb(80, 80, 80);"></path><path class="link" marker-end="" d="M1020,686, 777,746" style="stroke-width: 0.37; stroke-opacity: 1; stroke: rgb(80, 80, 80);"></path><path class="link" marker-end="" d="M1020,686, 825,746" style="stroke-width: 0.37; stroke-opacity: 1; stroke: rgb(80, 80, 80);"></path><path class="link" marker-end="" d="M1020,686, 873,746" style="stroke-width: 0.37; stroke-opacity: 1; stroke: rgb(80, 80, 80);"></path><path class="link" marker-end="" d="M1020,686, 921,746" style="stroke-width: 0.37; stroke-opacity: 1; stroke: rgb(80, 80, 80);"></path><path class="link" marker-end="" d="M1020,686, 969,746" style="stroke-width: 0.37; stroke-opacity: 1; stroke: rgb(80, 80, 80);"></path><path class="link" marker-end="" d="M1020,686, 1017,746" style="stroke-width: 0.37; stroke-opacity: 1; stroke: rgb(80, 80, 80);"></path><path class="link" marker-end="" d="M1020,686, 1065,746" style="stroke-width: 0.37; stroke-opacity: 1; stroke: rgb(80, 80, 80);"></path><path class="link" marker-end="" d="M1020,686, 1113,746" style="stroke-width: 0.37; stroke-opacity: 1; stroke: rgb(80, 80, 80);"></path><path class="link" marker-end="" d="M1020,686, 1161,746" style="stroke-width: 0.37; stroke-opacity: 1; stroke: rgb(80, 80, 80);"></path><path class="link" marker-end="" d="M1070,686, 729,746" style="stroke-width: 0.37; stroke-opacity: 1; stroke: rgb(80, 80, 80);"></path><path class="link" marker-end="" d="M1070,686, 777,746" style="stroke-width: 0.37; stroke-opacity: 1; stroke: rgb(80, 80, 80);"></path><path class="link" marker-end="" d="M1070,686, 825,746" style="stroke-width: 0.37; stroke-opacity: 1; stroke: rgb(80, 80, 80);"></path><path class="link" marker-end="" d="M1070,686, 873,746" style="stroke-width: 0.37; stroke-opacity: 1; stroke: rgb(80, 80, 80);"></path><path class="link" marker-end="" d="M1070,686, 921,746" style="stroke-width: 0.37; stroke-opacity: 1; stroke: rgb(80, 80, 80);"></path><path class="link" marker-end="" d="M1070,686, 969,746" style="stroke-width: 0.37; stroke-opacity: 1; stroke: rgb(80, 80, 80);"></path><path class="link" marker-end="" d="M1070,686, 1017,746" style="stroke-width: 0.37; stroke-opacity: 1; stroke: rgb(80, 80, 80);"></path><path class="link" marker-end="" d="M1070,686, 1065,746" style="stroke-width: 0.37; stroke-opacity: 1; stroke: rgb(80, 80, 80);"></path><path class="link" marker-end="" d="M1070,686, 1113,746" style="stroke-width: 0.37; stroke-opacity: 1; stroke: rgb(80, 80, 80);"></path><path class="link" marker-end="" d="M1070,686, 1161,746" style="stroke-width: 0.37; stroke-opacity: 1; stroke: rgb(80, 80, 80);"></path><path class="link" marker-end="" d="M1120,686, 729,746" style="stroke-width: 0.37; stroke-opacity: 1; stroke: rgb(80, 80, 80);"></path><path class="link" marker-end="" d="M1120,686, 777,746" style="stroke-width: 0.37; stroke-opacity: 1; stroke: rgb(80, 80, 80);"></path><path class="link" marker-end="" d="M1120,686, 825,746" style="stroke-width: 0.37; stroke-opacity: 1; stroke: rgb(80, 80, 80);"></path><path class="link" marker-end="" d="M1120,686, 873,746" style="stroke-width: 0.37; stroke-opacity: 1; stroke: rgb(80, 80, 80);"></path><path class="link" marker-end="" d="M1120,686, 921,746" style="stroke-width: 0.37; stroke-opacity: 1; stroke: rgb(80, 80, 80);"></path><path class="link" marker-end="" d="M1120,686, 969,746" style="stroke-width: 0.37; stroke-opacity: 1; stroke: rgb(80, 80, 80);"></path><path class="link" marker-end="" d="M1120,686, 1017,746" style="stroke-width: 0.37; stroke-opacity: 1; stroke: rgb(80, 80, 80);"></path><path class="link" marker-end="" d="M1120,686, 1065,746" style="stroke-width: 0.37; stroke-opacity: 1; stroke: rgb(80, 80, 80);"></path><path class="link" marker-end="" d="M1120,686, 1113,746" style="stroke-width: 0.37; stroke-opacity: 1; stroke: rgb(80, 80, 80);"></path><path class="link" marker-end="" d="M1120,686, 1161,746" style="stroke-width: 0.37; stroke-opacity: 1; stroke: rgb(80, 80, 80);"></path><circle r="15" class="node" id="0_0" cx="720" cy="386" style="fill: rgb(255, 255, 255); stroke: rgb(51, 51, 51);"></circle><circle r="15" class="node" id="0_1" cx="770" cy="386" style="fill: rgb(255, 255, 255); stroke: rgb(51, 51, 51);"></circle><circle r="15" class="node" id="0_2" cx="820" cy="386" style="fill: rgb(255, 255, 255); stroke: rgb(51, 51, 51);"></circle><circle r="15" class="node" id="0_3" cx="870" cy="386" style="fill: rgb(255, 255, 255); stroke: rgb(51, 51, 51);"></circle><circle r="15" class="node" id="0_4" cx="920" cy="386" style="fill: rgb(255, 255, 255); stroke: rgb(51, 51, 51);"></circle><circle r="15" class="node" id="0_5" cx="970" cy="386" style="fill: rgb(255, 255, 255); stroke: rgb(51, 51, 51);"></circle><circle r="15" class="node" id="0_6" cx="1020" cy="386" style="fill: rgb(255, 255, 255); stroke: rgb(51, 51, 51);"></circle><circle r="15" class="node" id="0_7" cx="1070" cy="386" style="fill: rgb(255, 255, 255); stroke: rgb(51, 51, 51);"></circle><circle r="15" class="node" id="0_8" cx="1120" cy="386" style="fill: rgb(255, 255, 255); stroke: rgb(51, 51, 51);"></circle><circle r="15" class="node" id="0_9" cx="1170" cy="386" style="fill: rgb(255, 255, 255); stroke: rgb(51, 51, 51);"></circle><circle r="15" class="node" id="1_0" cx="770" cy="446" style="fill: rgb(255, 255, 255); stroke: rgb(51, 51, 51);"></circle><circle r="15" class="node" id="1_1" cx="820" cy="446" style="fill: rgb(255, 255, 255); stroke: rgb(51, 51, 51);"></circle><circle r="15" class="node" id="1_2" cx="870" cy="446" style="fill: rgb(255, 255, 255); stroke: rgb(51, 51, 51);"></circle><circle r="15" class="node" id="1_3" cx="920" cy="446" style="fill: rgb(255, 255, 255); stroke: rgb(51, 51, 51);"></circle><circle r="15" class="node" id="1_4" cx="970" cy="446" style="fill: rgb(255, 255, 255); stroke: rgb(51, 51, 51);"></circle><circle r="15" class="node" id="1_5" cx="1020" cy="446" style="fill: rgb(255, 255, 255); stroke: rgb(51, 51, 51);"></circle><circle r="15" class="node" id="1_6" cx="1070" cy="446" style="fill: rgb(255, 255, 255); stroke: rgb(51, 51, 51);"></circle><circle r="15" class="node" id="1_7" cx="1120" cy="446" style="fill: rgb(255, 255, 255); stroke: rgb(51, 51, 51);"></circle><circle r="15" class="node" id="2_0" cx="820" cy="506" style="fill: rgb(255, 255, 255); stroke: rgb(51, 51, 51);"></circle><circle r="15" class="node" id="2_1" cx="870" cy="506" style="fill: rgb(255, 255, 255); stroke: rgb(51, 51, 51);"></circle><circle r="15" class="node" id="2_2" cx="920" cy="506" style="fill: rgb(255, 255, 255); stroke: rgb(51, 51, 51);"></circle><circle r="15" class="node" id="2_3" cx="970" cy="506" style="fill: rgb(255, 255, 255); stroke: rgb(51, 51, 51);"></circle><circle r="15" class="node" id="2_4" cx="1020" cy="506" style="fill: rgb(255, 255, 255); stroke: rgb(51, 51, 51);"></circle><circle r="15" class="node" id="2_5" cx="1070" cy="506" style="fill: rgb(255, 255, 255); stroke: rgb(51, 51, 51);"></circle><circle r="15" class="node" id="3_0" cx="870" cy="566" style="fill: rgb(255, 255, 255); stroke: rgb(51, 51, 51);"></circle><text class="text" dy=".35em" x="1220" y="386" style="font-size: 12px;">Input Layer ∈ ℝ¹⁰</text><text class="text" dy=".35em" x="1220" y="446" style="font-size: 12px;">Hidden Layer ∈ ℝ⁸</text><text class="text" dy=".35em" x="1220" y="506" style="font-size: 12px;">Hidden Layer ∈ ℝ⁶</text><text class="text" dy=".35em" x="1220" y="566" style="font-size: 12px;">Hidden Layer ∈ ℝ⁴</text><circle r="15" class="node" id="3_1" cx="920" cy="566" style="fill: rgb(255, 255, 255); stroke: rgb(51, 51, 51);"></circle><circle r="15" class="node" id="3_2" cx="970" cy="566" style="fill: rgb(255, 255, 255); stroke: rgb(51, 51, 51);"></circle><circle r="15" class="node" id="3_3" cx="1020" cy="566" style="fill: rgb(255, 255, 255); stroke: rgb(51, 51, 51);"></circle><circle r="15" class="node" id="4_0" cx="820" cy="626" style="fill: rgb(255, 255, 255); stroke: rgb(51, 51, 51);"></circle><circle r="15" class="node" id="4_1" cx="870" cy="626" style="fill: rgb(255, 255, 255); stroke: rgb(51, 51, 51);"></circle><circle r="15" class="node" id="4_2" cx="920" cy="626" style="fill: rgb(255, 255, 255); stroke: rgb(51, 51, 51);"></circle><circle r="15" class="node" id="4_3" cx="970" cy="626" style="fill: rgb(255, 255, 255); stroke: rgb(51, 51, 51);"></circle><circle r="15" class="node" id="4_4" cx="1020" cy="626" style="fill: rgb(255, 255, 255); stroke: rgb(51, 51, 51);"></circle><circle r="15" class="node" id="4_5" cx="1070" cy="626" style="fill: rgb(255, 255, 255); stroke: rgb(51, 51, 51);"></circle><text class="text" dy=".35em" x="1220" y="626" style="font-size: 12px;">Hidden Layer ∈ ℝ⁶</text><circle r="15" class="node" id="5_0" cx="770" cy="686" style="fill: rgb(255, 255, 255); stroke: rgb(51, 51, 51);"></circle><circle r="15" class="node" id="5_1" cx="820" cy="686" style="fill: rgb(255, 255, 255); stroke: rgb(51, 51, 51);"></circle><circle r="15" class="node" id="5_2" cx="870" cy="686" style="fill: rgb(255, 255, 255); stroke: rgb(51, 51, 51);"></circle><circle r="15" class="node" id="5_3" cx="920" cy="686" style="fill: rgb(255, 255, 255); stroke: rgb(51, 51, 51);"></circle><circle r="15" class="node" id="5_4" cx="970" cy="686" style="fill: rgb(255, 255, 255); stroke: rgb(51, 51, 51);"></circle><circle r="15" class="node" id="5_5" cx="1020" cy="686" style="fill: rgb(255, 255, 255); stroke: rgb(51, 51, 51);"></circle><circle r="15" class="node" id="5_6" cx="1070" cy="686" style="fill: rgb(255, 255, 255); stroke: rgb(51, 51, 51);"></circle><circle r="15" class="node" id="5_7" cx="1120" cy="686" style="fill: rgb(255, 255, 255); stroke: rgb(51, 51, 51);"></circle><text class="text" dy=".35em" x="1220" y="686" style="font-size: 12px;">Hidden Layer ∈ ℝ⁸</text><circle r="15" class="node" id="6_0" cx="729" cy="746" style="fill: rgb(255, 255, 255); stroke: rgb(51, 51, 51);"></circle><circle r="15" class="node" id="6_1" cx="777" cy="746" style="fill: rgb(255, 255, 255); stroke: rgb(51, 51, 51);"></circle><circle r="15" class="node" id="6_2" cx="825" cy="746" style="fill: rgb(255, 255, 255); stroke: rgb(51, 51, 51);"></circle><circle r="15" class="node" id="6_3" cx="873" cy="746" style="fill: rgb(255, 255, 255); stroke: rgb(51, 51, 51);"></circle><circle r="15" class="node" id="6_4" cx="921" cy="746" style="fill: rgb(255, 255, 255); stroke: rgb(51, 51, 51);"></circle><circle r="15" class="node" id="6_5" cx="969" cy="746" style="fill: rgb(255, 255, 255); stroke: rgb(51, 51, 51);"></circle><circle r="15" class="node" id="6_6" cx="1017" cy="746" style="fill: rgb(255, 255, 255); stroke: rgb(51, 51, 51);"></circle><circle r="15" class="node" id="6_7" cx="1065" cy="746" style="fill: rgb(255, 255, 255); stroke: rgb(51, 51, 51);"></circle><circle r="15" class="node" id="6_8" cx="1113" cy="746" style="fill: rgb(255, 255, 255); stroke: rgb(51, 51, 51);"></circle><circle r="15" class="node" id="6_9" cx="1161" cy="746" style="fill: rgb(255, 255, 255); stroke: rgb(51, 51, 51);"></circle><text class="text" dy=".35em" x="1220" y="746" style="font-size: 12px;">Output Layer ∈ ℝ¹⁰</text></g><defs><marker id="arrow" viewBox="0 -5 10 10" markerWidth="7" markerHeight="7" orient="auto" refX="54"><path d="M0,-5L10,0L0,5" style="stroke: rgb(80, 80, 80); fill: none;"></path></marker></defs></svg>